<svg width="46" height="45" viewBox="0 0 46 45" fill="none" xmlns="http://www.w3.org/2000/svg">
<g clip-path="url(#clip0_1_609)">
<path d="M29.7801 0.145096C28.5047 -0.0398948 26.446 6.86136 23.8639 15.1395C21.2818 23.4176 19.0357 30.2616 20.1028 30.7927C21.1699 31.3239 25.4162 25.1427 28.0804 16.4286C30.8707 7.80433 30.9618 0.301489 29.7801 0.145096Z" fill="#BDBDBD"/>
<path d="M25.1609 28.6513C23.2846 26.7457 20.9993 25.8421 18.3301 25.6921C16.0744 27.2052 14.745 31.0509 10.0347 33.5554C12.5368 36.933 19.3011 40.9478 23.6415 40.9941C23.4654 35.2026 25.573 31.4925 25.1609 28.6513Z" fill="#BDBDBD"/>
<path d="M22.5425 34.2027C22.7314 33.0822 22.8955 32.2103 22.9737 31.6194C23.0193 30.9675 23.0727 30.6252 23.0727 30.6252C23.0727 30.6252 23.0193 30.9675 22.9412 31.5583C22.8018 32.1816 22.6377 33.0535 22.4163 34.1129C22.0555 35.7956 21.6452 37.9755 21.7762 40.7306C21.9311 40.7268 22.0573 40.8166 22.2122 40.8127C21.9264 38.0614 22.2754 35.9141 22.5425 34.2027Z" fill="#BDBDBD"/>
<path d="M20.9263 32.7866C20.9433 32.2282 21.0292 31.9471 21.0292 31.9471C20.9967 31.8859 20.9433 32.2282 20.9263 32.7866C20.8156 33.3162 20.6801 34.0945 20.4873 35.0601C20.2125 36.4618 19.8517 38.1444 19.6861 40.1942C19.8735 40.2515 19.9997 40.3413 20.0934 40.3699C20.0716 38.2629 20.3999 36.519 20.581 35.0887C20.7413 34.062 20.8156 33.3162 20.9263 32.7866Z" fill="#BDBDBD"/>
<path d="M19.2291 34.3166C19.4792 33.1636 19.521 32.3567 19.521 32.3567C19.521 32.3567 19.3855 33.135 19.0417 34.2594C18.6979 35.3838 18.1784 36.9154 17.6589 38.4472C17.573 38.7283 17.4545 38.9482 17.3686 39.2293C17.5885 39.3478 17.8084 39.4662 17.9958 39.5235C18.0817 39.2424 18.1065 38.9938 18.1924 38.7127C18.6469 37.0587 18.979 35.4697 19.2291 34.3166Z" fill="#BDBDBD"/>
<path d="M14.5052 37.5346C14.7577 37.7142 15.0713 37.8613 15.3563 38.1021C16.222 36.7787 17.0227 35.3329 17.7621 33.9197C16.8964 35.2431 15.8108 36.4481 14.5052 37.5346Z" fill="#BDBDBD"/>
<path d="M17.8302 29.1759C18.222 28.7322 18.4628 28.4472 18.4628 28.4472C18.4016 28.4797 18.222 28.7322 17.8302 29.1759C17.4058 29.5584 16.8344 30.2546 16.0794 31.0484C14.9613 32.1922 13.4188 33.7186 11.0578 34.7385C11.1841 34.8283 11.2491 34.9507 11.3753 35.0405C13.6713 33.8982 15.12 32.3432 16.2056 31.1383C16.8669 30.3158 17.3772 29.6521 17.8302 29.1759Z" fill="#BDBDBD"/>
<path d="M18.2591 31.4587C18.6223 31.1087 18.8631 30.8237 18.8631 30.8237C18.802 30.8562 18.5898 31.0475 18.2591 31.4587C17.8348 31.8412 17.3206 32.35 16.6555 33.0176C15.6883 34.0026 14.4153 35.1503 12.6738 36.1548C12.8001 36.2445 12.9263 36.3344 13.0525 36.4242C14.6066 35.3625 15.8146 34.0925 16.7817 33.1074C17.3532 32.4112 17.8673 31.9024 18.2591 31.4587Z" fill="#BDBDBD"/>
<path d="M25.2285 28.7735C23.0462 27.0305 20.6998 26.1595 18.3039 25.7856L18.3651 25.7531C21.0203 24.1059 24.5561 25.443 25.2285 28.7735C25.1959 28.7123 25.2285 28.7735 25.2285 28.7735Z" fill="#BDBDBD"/>
<path d="M27.5277 33.985C27.8318 33.8233 27.8744 33.3089 27.6229 32.8359C27.3714 32.3629 26.921 32.1105 26.617 32.2722C26.3129 32.4339 26.2703 32.9484 26.5218 33.4213C26.7733 33.8943 27.2236 34.1467 27.5277 33.985Z" fill="#BDBDBD"/>
<path d="M30.0846 30.8215C30.2873 30.7137 30.2914 30.3251 30.0938 29.9535C29.8962 29.5818 29.5717 29.368 29.369 29.4757C29.1663 29.5835 29.1621 29.9722 29.3597 30.3438C29.5573 30.7154 29.8818 30.9293 30.0846 30.8215Z" fill="#BDBDBD"/>
<path d="M29.1376 35.0914C28.9006 35.5313 28.9409 35.9022 29.1283 35.9595C29.3157 36.0168 29.6177 35.6993 29.8221 35.1983C30.059 34.7584 30.0187 34.3875 29.8314 34.3302C29.5828 34.3054 29.2809 34.6229 29.1376 35.0914Z" fill="#BDBDBD"/>
<path d="M32.3035 35.2911C31.8064 35.2415 31.3456 35.4081 31.317 35.5017C31.2597 35.6891 31.6345 35.8037 32.1316 35.8533C32.6288 35.9028 33.0895 35.7362 33.1182 35.6426C33.208 35.5163 32.8007 35.3406 32.3035 35.2911Z" fill="#BDBDBD"/>
<path d="M35.3124 32.984C35.8868 32.6787 36.2796 32.2942 36.1897 32.1253C36.0999 31.9563 35.5615 32.067 34.9872 32.3724C34.4129 32.6777 34.0201 33.0622 34.1099 33.2311C34.1997 33.4001 34.7381 33.2894 35.3124 32.984Z" fill="#BDBDBD"/>
<path d="M30.6491 32.3261C30.9532 32.1644 31.0832 31.8143 30.9394 31.544C30.7957 31.2738 30.4328 31.1857 30.1287 31.3474C29.8246 31.5091 29.6946 31.8592 29.8383 32.1295C29.982 32.3998 30.345 32.4878 30.6491 32.3261Z" fill="#BDBDBD"/>
<path d="M28.3984 36.5046C27.9988 36.6386 27.7581 36.9236 27.7944 37.1397C27.8308 37.3557 28.1731 37.4091 28.5727 37.2752C28.9723 37.1412 29.213 36.8562 29.1767 36.6401C29.1727 36.4852 28.798 36.3707 28.3984 36.5046Z" fill="#BDBDBD"/>
<path d="M26.9288 38.4631C27.1653 38.3374 27.1532 37.852 26.9017 37.379C26.6502 36.9061 26.2546 36.6246 26.0181 36.7503C25.7816 36.8761 25.7937 37.3615 26.0452 37.8344C26.2967 38.3074 26.6923 38.5889 26.9288 38.4631Z" fill="#BDBDBD"/>
<path d="M32.4534 32.6217C32.6562 32.5139 32.7622 32.3169 32.6904 32.1818C32.6185 32.0466 32.3959 32.0244 32.1932 32.1322C31.9905 32.24 31.8844 32.437 31.9563 32.5721C32.0281 32.7073 32.2507 32.7294 32.4534 32.6217Z" fill="#BDBDBD"/>
<path d="M31.9995 29.4098C32.2023 29.302 32.2792 29.0503 32.1714 28.8476C32.0636 28.6449 31.8119 28.5679 31.6092 28.6757C31.4065 28.7835 31.3296 29.0352 31.4373 29.2379C31.5451 29.4406 31.7968 29.5176 31.9995 29.4098Z" fill="#BDBDBD"/>
<path d="M27.436 30.2679C27.5711 30.1961 27.637 30.0557 27.5831 29.9543C27.5292 29.8529 27.376 29.829 27.2408 29.9009C27.1057 29.9728 27.0398 30.1132 27.0937 30.2145C27.1476 30.3159 27.3008 30.3398 27.436 30.2679Z" fill="#BDBDBD"/>
<path d="M32.0895 34.1495C32.2246 34.0777 32.2614 33.8825 32.1716 33.7136C32.0818 33.5447 31.8994 33.466 31.7642 33.5379C31.6291 33.6097 31.5923 33.8049 31.6822 33.9738C31.772 34.1427 31.9543 34.2214 32.0895 34.1495Z" fill="#BDBDBD"/>
<path d="M26.9441 35.3943C27.2144 35.2506 27.3461 34.9698 27.2383 34.767C27.1306 34.5643 26.8241 34.5165 26.5538 34.6602C26.2836 34.8039 26.1518 35.0847 26.2596 35.2875C26.3674 35.4902 26.6739 35.538 26.9441 35.3943Z" fill="#BDBDBD"/>
</g>
<defs>
<clipPath id="clip0_1_609">
<rect width="33.2737" height="33.2737" fill="white" transform="translate(0.5 15.6211) rotate(-28)"/>
</clipPath>
</defs>
</svg>
