<svg width="36" height="36" viewBox="0 0 36 36" fill="none" xmlns="http://www.w3.org/2000/svg">
<path d="M35.6542 19.6036L31.7797 15.7009V9.40019C31.7797 9.39415 31.7789 9.38828 31.7788 9.38224C31.7785 9.35699 31.7769 9.33206 31.775 9.30713C31.7739 9.29348 31.7732 9.27982 31.7716 9.26632C31.7688 9.24139 31.7646 9.21694 31.7604 9.19248C31.758 9.1793 31.7562 9.16596 31.7535 9.15294C31.7481 9.12769 31.7413 9.10292 31.7343 9.07831C31.7276 9.05481 31.7203 9.03162 31.7122 9.0086C31.7048 8.987 31.6975 8.9654 31.6887 8.94428C31.6816 8.92698 31.6732 8.91046 31.6652 8.89363C31.6575 8.87727 31.6502 8.86076 31.6417 8.84472C31.6333 8.82868 31.6238 8.81328 31.6146 8.79756C31.6051 8.78136 31.5955 8.765 31.5852 8.74928C31.576 8.73515 31.5662 8.7215 31.5563 8.70784C31.5444 8.69132 31.5325 8.67497 31.5198 8.65893C31.5101 8.6467 31.5001 8.63495 31.4899 8.62304C31.4758 8.60653 31.4612 8.59049 31.4461 8.57477C31.4359 8.56429 31.4258 8.55397 31.4153 8.5438C31.3989 8.52808 31.3821 8.51284 31.3648 8.49791C31.3542 8.4887 31.3435 8.47965 31.3326 8.47076C31.3148 8.45647 31.2965 8.44313 31.2778 8.42979C31.2659 8.42137 31.2543 8.4128 31.2421 8.40486C31.2241 8.39311 31.2055 8.38215 31.187 8.37135C31.173 8.36325 31.1592 8.35484 31.1449 8.34721C31.1282 8.33832 31.1109 8.33054 31.0936 8.32244C31.0764 8.31434 31.0596 8.30593 31.042 8.29878C31.0278 8.29291 31.0131 8.28814 30.9985 8.2829C30.9773 8.27512 30.9565 8.26702 30.9349 8.26051C30.9343 8.26035 30.9337 8.26004 30.933 8.25988L12.6057 2.72411V2.02129C12.6057 1.36356 12.0724 0.830322 11.4147 0.830322H8.28248C7.62475 0.830322 7.09152 1.36356 7.09152 2.02129V3.26227L0.456256 8.46282C0.0564092 8.77628 -0.10048 9.30872 0.0653018 9.78876C0.231084 10.269 0.683174 10.5912 1.191 10.5912H7.09136V26.3144L0.343987 33.1417C0.00638872 33.4834 -0.0930171 33.9946 0.0921382 34.4379C0.277293 34.8813 0.710805 35.1698 1.19116 35.1698H19.2381C19.728 35.1698 20.1678 34.8698 20.3468 34.4138C20.5256 33.9577 20.4071 33.4386 20.0479 33.1056L12.6058 26.2037V10.5912H29.3978V15.6983L25.4957 19.6004C25.1551 19.941 25.0532 20.4533 25.2375 20.8982C25.4219 21.3433 25.8562 21.6335 26.3378 21.6335H34.8089C35.2897 21.6335 35.7236 21.3443 35.9084 20.9003C36.0933 20.4563 35.993 19.9448 35.6542 19.6036ZM4.64099 8.20922L7.09152 6.28843V8.20922H4.64099ZM7.09152 29.703V32.7877H4.04265L7.09152 29.703ZM16.2024 32.7879H12.6057V29.4524L16.2024 32.7879ZM12.6057 8.20922V5.21228L22.5274 8.20922H12.6057ZM29.2131 19.2517L30.5858 17.8791L31.9484 19.2517H29.2131Z" fill="#BDBDBD"/>
</svg>
